<svg width="60" height="60" viewBox="0 0 60 60" fill="none" xmlns="http://www.w3.org/2000/svg">
<rect width="60" height="60" rx="20" fill="var(--main)"/>
<path d="M12 24L29.4145 11.4229C29.764 11.1704 30.236 11.1704 30.5855 11.4229L48 24" stroke="white" stroke-width="4" stroke-linecap="round"/>
<path d="M13.742 29.4012L28.9594 18.411C29.6584 17.9061 30.6023 17.9061 31.3013 18.411L46.5186 29.4012C47.0393 29.7772 47.3477 30.3804 47.3477 31.0226V46.1738C47.3477 47.2784 46.4522 48.1738 45.3477 48.1738H14.913C13.8085 48.1738 12.913 47.2784 12.913 46.1738V31.0226C12.913 30.3804 13.2214 29.7772 13.742 29.4012Z" fill="white" stroke="white" stroke-width="2" stroke-linecap="round"/>
<path d="M21 33C21 31.3431 22.3431 30 24 30H36C37.6569 30 39 31.3431 39 33V50H21V33Z" fill="var(--main)" fill-opacity="0.2"/>
<path d="M24.3913 34.8695C24.3913 33.7649 25.2867 32.8695 26.3913 32.8695H33.8695C34.974 32.8695 35.8695 33.7649 35.8695 34.8695V51.9999H24.3913V34.8695Z" fill="var(--main)"/>
<path d="M37.7825 10C37.7825 9.44771 38.2302 9 38.7825 9H42.5216C43.0739 9 43.5216 9.44772 43.5216 10V18.5652H38.7825C38.2302 18.5652 37.7825 18.1175 37.7825 17.5652V10Z" fill="white"/>
</svg>
