<svg width="265" height="300" viewBox="0 0 265 300" fill="none" xmlns="http://www.w3.org/2000/svg">
<path d="M242.663 63.1157H15.3319V299.997H242.663V63.1157Z" fill="#5697FF"/>
<path d="M68.425 86.1743H34.0801V140.447H68.425V86.1743Z" fill="#2277FF"/>
<path d="M115.784 86.1743H81.4395V140.447H115.784V86.1743Z" fill="#2277FF"/>
<path d="M217.486 86.1743H155.496V140.447H217.486V86.1743Z" fill="#2277FF"/>
<path d="M65.596 88.9578H36.9125V137.66H65.596V88.9578Z" fill="white"/>
<path d="M62.7546 92.1511H39.7537V134.469H62.7546V92.1511Z" fill="#72C5D3"/>
<path d="M112.949 88.9578H84.2688V137.66H112.949V88.9578Z" fill="white"/>
<path d="M110.111 92.1511H87.11V134.469H110.111V92.1511Z" fill="#72C5D3"/>
<path d="M214.416 88.9578H158.325V137.66H214.416V88.9578Z" fill="white"/>
<path d="M184.17 92.1511H161.169V134.469H184.17V92.1511Z" fill="#72C5D3"/>
<path d="M211.409 92.1511H188.408V134.469H211.409V92.1511Z" fill="#72C5D3"/>
<path d="M96.5878 221.375H34.6007V272.861H96.5878V221.375Z" fill="#2277FF"/>
<path d="M93.524 221.375H37.4331V270.074H93.524V221.375Z" fill="white"/>
<path d="M63.2753 224.565H40.2743V266.88H63.2753V224.565Z" fill="#72C5D3"/>
<path d="M90.5111 224.565H67.5132V266.88H90.5111V224.565Z" fill="#72C5D3"/>
<path d="M15.633 28.7651L4.93616 71.5436H108.883H128.405H257.995L247.756 28.7651H15.633Z" fill="#315185"/>
<path d="M247.756 28.7648L246.326 22.7874H128.405H108.883H11.6661L0 71.5433H4.93609L15.633 28.7648H247.756Z" fill="#9EC4FF"/>
<path d="M257.977 209.025H110.111V300H257.977V209.025Z" fill="#5697FF"/>
<path d="M257.995 71.5432H0V74.7607H257.995V71.5432Z" fill="#9EC4FF"/>
<path d="M264.755 205.808H103.579V209.025H264.755V205.808Z" fill="#9EC4FF"/>
<path d="M242.663 74.7639H15.3319V78.6737H242.663V74.7639Z" fill="#2277FF"/>
<path d="M107.715 205.808H264.755L257.977 162.639H113.07L107.715 205.808Z" fill="#315185"/>
<path d="M109.542 159.141L103.579 205.808H107.715L113.069 162.638H257.977L257.426 159.141H109.542Z" fill="#9EC4FF"/>
<path d="M101.265 212.833H29.8181V221.374H101.265V212.833Z" fill="#2277FF"/>
<path d="M165.125 217.104H120.968V300H165.125V217.104Z" fill="#2277FF"/>
<path d="M161.759 220.087H124.004V300H161.759V220.087Z" fill="#315185"/>
<path d="M141.103 225.736H126.412V258.079H141.103V225.736Z" fill="#72C5D3"/>
<path d="M141.103 261.854H126.412V294.197H141.103V261.854Z" fill="#72C5D3"/>
<path d="M159.162 225.736H144.471V258.079H159.162V225.736Z" fill="#72C5D3"/>
<path d="M159.162 261.854H144.471V294.197H159.162V261.854Z" fill="#72C5D3"/>
<path d="M222.753 217.723H188.408V271.996H222.753V217.723Z" fill="#2277FF"/>
<path d="M219.921 220.508H191.237V269.209H219.921V220.508Z" fill="white"/>
<path d="M217.08 223.701H194.079V266.019H217.08V223.701Z" fill="#72C5D3"/>
<path d="M72.4012 0H54.1406V38.1132H72.4012V0Z" fill="#5697FF"/>
<path d="M72.4012 32.8552H54.1406V38.1133H72.4012V32.8552Z" fill="#2277FF"/>
<path d="M64.2024 121.19H38.2428V123.397H64.2024V121.19Z" fill="white"/>
<path d="M52.3539 136.925L52.3539 89.9482H50.1537L50.1537 136.925H52.3539Z" fill="white"/>
<path d="M111.589 121.19H85.6323V123.397H111.589V121.19Z" fill="white"/>
<path d="M99.7427 136.923L99.7427 89.946H97.5395L97.5395 136.923H99.7427Z" fill="white"/>
<path d="M218.557 253.478H192.601V255.678H218.557V253.478Z" fill="white"/>
<path d="M206.713 269.212V222.235H204.51V269.212H206.713Z" fill="white"/>
<path d="M185.648 121.063H159.692V123.267H185.648V121.063Z" fill="white"/>
<path d="M173.803 136.798V89.821H171.6V136.798H173.803Z" fill="white"/>
<path d="M212.884 121.063H186.927V123.267H212.884V121.063Z" fill="white"/>
<path d="M201.039 136.796V89.8188H198.836V136.796H201.039Z" fill="white"/>
<path d="M91.9887 253.478H66.0321V255.678H91.9887V253.478Z" fill="white"/>
<path d="M80.145 269.212L80.145 222.234H77.9419L77.9419 269.212H80.145Z" fill="white"/>
<path d="M65.3341 253.478H39.3774V255.678H65.3341V253.478Z" fill="white"/>
<path d="M53.4847 269.212L53.4847 222.234H51.2845L51.2845 269.212H53.4847Z" fill="white"/>
</svg>
