<svg width="422" height="221" viewBox="0 0 422 221" fill="none" xmlns="http://www.w3.org/2000/svg">
<path d="M277.661 103.052L242.919 91.0193H196.95H192.603H151.906L117.164 103.052L141.116 139.48L194.874 137.407L253.707 139.48L277.661 103.052Z" fill="#1D4078"/>
<path d="M244.528 132.937H137.739V221H244.528V132.937Z" fill="#5386D8"/>
<path d="M419.058 124.804H242.407V221H419.058V124.804Z" fill="#639FFF"/>
<path d="M142.785 117.375L122.117 101.785L75.1502 68.6787L7.5094 116.792V220.997H142.785V117.375Z" fill="#639FFF"/>
<path d="M246.668 40.1455L196.715 6.79443L145.342 40.1455V105.949H246.668V40.1455Z" fill="#3573D6"/>
<path d="M421.354 123.633H239.22V125.684H421.354V123.633Z" fill="#829DC9"/>
<path d="M112.699 139.479H37.2576V221H112.699V139.479Z" fill="white"/>
<path d="M113.238 118.611H75.041H75.0286H36.8352L26.2242 139.48H75.0286H75.041H123.849L113.238 118.611Z" fill="#1D4078"/>
<path d="M401.563 84.6179H330.301H330.276H259.014L239.22 123.546H330.276H330.301H421.354L401.563 84.6179Z" fill="#1D4078"/>
<path d="M100.569 147.789H49.5088V198.991H100.569V147.789Z" fill="#1D4078"/>
<path d="M65.3974 149.784H51.4746V196.999H65.3974V149.784Z" fill="#72C5D3"/>
<path d="M81.8201 149.784H67.894V196.999H81.8201V149.784Z" fill="#72C5D3"/>
<path d="M98.5468 149.784H84.6208V196.999H98.5468V149.784Z" fill="#72C5D3"/>
<path d="M200.435 132.581H153.13L150.887 137.708H200.435V132.581Z" fill="#1D4078"/>
<path d="M185.617 132.581H232.919L235.165 137.708H185.617V132.581Z" fill="#1D4078"/>
<path d="M402.99 142.218H258.167V220.997H402.99V142.218Z" fill="#1D4078"/>
<path d="M220.699 147.788H167.08V207.377H220.699V147.788Z" fill="white"/>
<path d="M192.603 149.784H169.336V207.38H192.603V149.784Z" fill="#1D4078"/>
<path d="M218.499 149.784H195.236V207.38H218.499V149.784Z" fill="#1D4078"/>
<path d="M229.088 213.304H158.365V220.997H229.088V213.304Z" fill="#1D4078"/>
<path d="M229.087 207.381H159.479V213.304H229.087V207.381Z" fill="#829DC9"/>
<path d="M75.1537 76.5105L145.549 125.687L148.523 122.282L75.2559 68.7559L75.1598 68.6877L75.1505 68.6785L75.1382 68.6877L75.0421 68.7559L1.77515 122.282L4.7493 125.687L75.1413 76.5105L75.1505 76.5043L75.1537 76.5105Z" fill="#5386D8"/>
<path d="M148.523 122.283L150.128 120.309L74.9833 66.4023L0 120.071L1.77521 122.283L75.1506 70.0178L148.523 122.283Z" fill="#829DC9"/>
<path d="M196.496 10.109L266.888 59.2851L269.863 55.8803L196.596 2.35444L196.503 2.28939L196.49 2.28003L196.478 2.28939L196.385 2.35444L123.118 55.8803L126.092 59.2851L196.481 10.109L196.49 10.1027L196.496 10.109Z" fill="#5386D8"/>
<path d="M269.863 55.8804L271.471 53.9101L196.327 0L121.344 53.6684L123.119 55.8804L196.491 3.61858L269.863 55.8804Z" fill="#829DC9"/>
<path d="M99.5577 182.385H50.2917V184.516H99.5577V182.385Z" fill="#1D4078"/>
<path d="M112.7 141.038H37.2582V144.84H112.7V141.038Z" fill="#5386D8"/>
<path d="M116.839 203.475H33.4569V220.997H116.839V203.475Z" fill="#5386D8"/>
<path d="M123.849 139.479H26.2242V141.378H123.849V139.479Z" fill="#829DC9"/>
<path d="M242.401 131.633H142.794V133.532H242.401V131.633Z" fill="#829DC9"/>
<path d="M224.117 43.9126H169.336V94.0957H224.117V43.9126Z" fill="white"/>
<path d="M221.387 46.6824H172.31V91.3292H221.387V46.6824Z" fill="#1D4078"/>
<path d="M187.756 48.4946H174.192V89.5166H187.756V48.4946Z" fill="#72C5D3"/>
<path d="M219.314 48.4946H205.75V89.5166H219.314V48.4946Z" fill="#72C5D3"/>
<path d="M203.629 48.4946H190.065V89.5166H203.629V48.4946Z" fill="#72C5D3"/>
<path d="M220.683 74.4133H173.028V76.5448H220.683V74.4133Z" fill="#1D4078"/>
<path d="M160.942 139.612H155.787V220.999H160.942V139.612Z" fill="white"/>
<path d="M231.667 139.612H226.512V220.999H231.667V139.612Z" fill="white"/>
<path d="M233.838 139.625H153.253V144.799H233.838V139.625Z" fill="#3573D6"/>
<path d="M235.165 137.707H150.633V139.609H235.165V137.707Z" fill="#829DC9"/>
<path d="M180.149 150.865H170.668V177.586H180.149V150.865Z" fill="#72C5D3"/>
<path d="M191.134 150.865H181.653V177.586H191.134V150.865Z" fill="#72C5D3"/>
<path d="M180.149 179.362H170.668V205.857H180.149V179.362Z" fill="#72C5D3"/>
<path d="M191.134 179.362H181.653V205.857H191.134V179.362Z" fill="#72C5D3"/>
<path d="M206.109 150.865H196.632V177.586H206.109V150.865Z" fill="#72C5D3"/>
<path d="M217.096 150.865H207.619V177.586H217.096V150.865Z" fill="#72C5D3"/>
<path d="M206.109 179.362H196.632V205.857H206.109V179.362Z" fill="#72C5D3"/>
<path d="M217.096 179.362H207.619V205.857H217.096V179.362Z" fill="#72C5D3"/>
<path d="M406.845 139.479H254.619V144.839H406.845V139.479Z" fill="#829DC9"/>
<path d="M305.239 147.788H262.179V217.152H305.239V147.788Z" fill="#5A78A8"/>
<path d="M352.264 147.788H309.2V217.152H352.264V147.788Z" fill="#5A78A8"/>
<path d="M398.802 147.788H355.742V217.152H398.802V147.788Z" fill="#5A78A8"/>
</svg>
