<svg width="948" height="360" viewBox="0 0 948 360" fill="none" xmlns="http://www.w3.org/2000/svg">
<g clip-path="url(#clip0_119_2738)">
<path d="M159.686 82.9644H0V359.996H159.686V82.9644Z" fill="#5E9CFF"/>
<path d="M948.496 146.812H788.807V360H948.496V146.812Z" fill="#5E9CFF"/>
<path d="M576.303 173.956H416.617V360H576.303V173.956Z" fill="#5E9CFF"/>
<path d="M406 233H246V366H406V233Z" fill="#5E9CFF"/>
<path d="M248.774 0H136.531V359.997H248.774V0Z" fill="#5E9CFF"/>
<path d="M166.116 11.1797H147.76V21.5664H166.116V11.1797Z" fill="#7BAEFF"/>
<path d="M203.165 11.1797H184.811V21.5664H203.165V11.1797Z" fill="#7BAEFF"/>
<path d="M240.21 11.1797H221.853V21.5664H240.21V11.1797Z" fill="#7BAEFF"/>
<path d="M166.116 34.1152H147.76V44.502H166.116V34.1152Z" fill="#7BAEFF"/>
<path d="M203.165 34.1152H184.811V44.502H203.165V34.1152Z" fill="#7BAEFF"/>
<path d="M240.21 34.1152H221.853V44.502H240.21V34.1152Z" fill="#7BAEFF"/>
<path d="M166.116 57.0515H147.76V67.4383H166.116V57.0515Z" fill="#7BAEFF"/>
<path d="M203.165 57.0515H184.811V67.4383H203.165V57.0515Z" fill="#7BAEFF"/>
<path d="M240.21 57.0515H221.853V67.4383H240.21V57.0515Z" fill="#7BAEFF"/>
<path d="M166.116 79.9839H147.76V90.3706H166.116V79.9839Z" fill="#7BAEFF"/>
<path d="M203.165 79.9839H184.811V90.3706H203.165V79.9839Z" fill="#7BAEFF"/>
<path d="M240.21 79.9839H221.853V90.3706H240.21V79.9839Z" fill="#7BAEFF"/>
<path d="M166.116 102.92H147.76V113.307H166.116V102.92Z" fill="#7BAEFF"/>
<path d="M203.165 102.92H184.811V113.307H203.165V102.92Z" fill="#7BAEFF"/>
<path d="M240.21 102.92H221.853V113.307H240.21V102.92Z" fill="#7BAEFF"/>
<path d="M166.116 125.859H147.76V136.242H166.116V125.859Z" fill="#7BAEFF"/>
<path d="M203.165 125.859H184.811V136.242H203.165V125.859Z" fill="#7BAEFF"/>
<path d="M240.21 125.859H221.853V136.242H240.21V125.859Z" fill="#7BAEFF"/>
<path d="M166.116 148.791H147.76V159.178H166.116V148.791Z" fill="#7BAEFF"/>
<path d="M203.165 148.791H184.811V159.178H203.165V148.791Z" fill="#7BAEFF"/>
<path d="M240.21 148.791H221.853V159.178H240.21V148.791Z" fill="#7BAEFF"/>
<path d="M166.116 171.727H147.76V182.114H166.116V171.727Z" fill="#7BAEFF"/>
<path d="M203.165 171.727H184.811V182.114H203.165V171.727Z" fill="#7BAEFF"/>
<path d="M240.21 171.727H221.853V182.114H240.21V171.727Z" fill="#7BAEFF"/>
<path d="M166.116 194.659H147.76V205.046H166.116V194.659Z" fill="#7BAEFF"/>
<path d="M203.165 194.659H184.811V205.046H203.165V194.659Z" fill="#7BAEFF"/>
<path d="M240.21 194.659H221.853V205.046H240.21V194.659Z" fill="#7BAEFF"/>
<path d="M166.116 217.595H147.76V227.982H166.116V217.595Z" fill="#7BAEFF"/>
<path d="M203.165 217.595H184.811V227.982H203.165V217.595Z" fill="#7BAEFF"/>
<path d="M240.21 217.595H221.853V227.982H240.21V217.595Z" fill="#7BAEFF"/>
<path d="M166.116 240.531H147.76V250.915H166.116V240.531Z" fill="#7BAEFF"/>
<path d="M203.165 240.531H184.811V250.915H203.165V240.531Z" fill="#7BAEFF"/>
<path d="M240.21 240.531H221.853V250.915H240.21V240.531Z" fill="#7BAEFF"/>
<path d="M476.898 121.656H303.693V417H476.898V121.656Z" fill="#5E9CFF"/>
<path d="M481 116H298V127.312H481V116Z" fill="#7BAEFF"/>
<path d="M453.312 142.395H436.096V170.588H453.312V142.395Z" fill="#7BAEFF"/>
<path d="M416.605 142.395H399.389V170.588H416.605V142.395Z" fill="#7BAEFF"/>
<path d="M379.898 142.395H362.682V170.588H379.898V142.395Z" fill="#7BAEFF"/>
<path d="M343.186 142.395H325.97V170.588H343.186V142.395Z" fill="#7BAEFF"/>
<path d="M453.312 192.844H436.096V221.037H453.312V192.844Z" fill="#7BAEFF"/>
<path d="M416.605 192.844H399.389V221.037H416.605V192.844Z" fill="#7BAEFF"/>
<path d="M379.898 192.844H362.682V221.037H379.898V192.844Z" fill="#7BAEFF"/>
<path d="M343.186 192.844H325.97V221.037H343.186V192.844Z" fill="#7BAEFF"/>
<path d="M453.312 243.294H436.096V271.487H453.312V243.294Z" fill="#7BAEFF"/>
<path d="M416.605 243.294H399.389V271.487H416.605V243.294Z" fill="#7BAEFF"/>
<path d="M379.898 243.294H362.682V271.487H379.898V243.294Z" fill="#7BAEFF"/>
<path d="M343.186 243.294H325.97V271.487H343.186V243.294Z" fill="#7BAEFF"/>
<path d="M789.166 50H576V482.988H789.166V50Z" fill="#5E9CFF"/>
<path d="M801 36H566.265V51.9726H801V36Z" fill="#7BAEFF"/>
<path d="M769.972 69.2793H603.309V75.9319H769.972V69.2793Z" fill="#7BAEFF"/>
<path d="M769.972 93.9011H603.309V100.554H769.972V93.9011Z" fill="#7BAEFF"/>
<path d="M769.972 118.527H603.309V125.183H769.972V118.527Z" fill="#7BAEFF"/>
<path d="M769.972 143.153H603.309V149.805H769.972V143.153Z" fill="#7BAEFF"/>
<path d="M769.972 167.774H603.309V174.427H769.972V167.774Z" fill="#7BAEFF"/>
<path d="M769.972 192.4H603.309V199.056H769.972V192.4Z" fill="#7BAEFF"/>
<path d="M769.972 217.026H603.309V223.678H769.972V217.026Z" fill="#7BAEFF"/>
<path d="M769.972 241.647H603.309V248.3H769.972V241.647Z" fill="#7BAEFF"/>
<path d="M769.972 266.273H603.309V272.93H769.972V266.273Z" fill="#7BAEFF"/>
</g>
<defs>
<clipPath id="clip0_119_2738">
<rect width="948" height="360" fill="white"/>
</clipPath>
</defs>
</svg>
