<svg width="300" height="307" viewBox="0 0 300 307" fill="none" xmlns="http://www.w3.org/2000/svg">
<path d="M286.426 74.281H153.877V297.007H286.426V74.281Z" fill="#3A86FF"/>
<path d="M156.525 71.3376H55.5864V258.051H156.525V71.3376Z" fill="#2463C7"/>
<path d="M156.525 71.3376H49.623V81.0675H156.525V71.3376Z" fill="#2B70DD"/>
<path d="M48.385 74.2809H111.176H218.963H286.924L277.901 4.77417L57.8568 5.023L48.385 74.2809Z" fill="#315185"/>
<path d="M218.963 0H111.176H52.8583L43.2175 74.281H48.3851L57.8568 5.02312L277.901 4.77429L277.284 0H218.963Z" fill="#416BAD"/>
<path d="M5.89246 176.772H155.938V142.095H55.6108L5.89246 176.772Z" fill="#315185"/>
<path d="M29.6717 176.772H22.713V258.048H29.6717V176.772Z" fill="#2B70DD"/>
<path d="M154.227 258.055H0V260.912H154.227V258.055Z" fill="white"/>
<path d="M154.227 260.921H0V268.927H154.227V260.921Z" fill="#2B70DD"/>
<path d="M154.227 268.927H0V297.007H154.227V268.927Z" fill="#315185"/>
<path d="M130.221 267.713H66.6311V270.144H130.221V267.713Z" fill="white"/>
<path d="M127.867 276.583H67.6786V279.013H127.867V276.583Z" fill="white"/>
<path d="M127.867 285.594H67.6786V288.021H127.867V285.594Z" fill="white"/>
<path d="M127.867 294.602H67.6786V297.032H127.867V294.602Z" fill="white"/>
<path d="M127.867 303.61H67.6786V306.04H127.867V303.61Z" fill="white"/>
<path d="M118.039 192.013H78.871V258.054H118.039V192.013Z" fill="#2B70DD"/>
<path d="M113.72 195.767H82.8403V258.054H113.72V195.767Z" fill="#315185"/>
<path d="M110.755 198.625H85.8083V255.203H110.755V198.625Z" fill="#72C5D3"/>
<path d="M99.5532 197.359H97.0063V257.385H99.5532V197.359Z" fill="#315185"/>
<path d="M112.058 216.379H84.3551V218.729H112.058V216.379Z" fill="#315185"/>
<path d="M112.134 236.358H84.4286V238.709H112.134V236.358Z" fill="#315185"/>
<path d="M68.7324 252.97H29.6718V255.511H68.7324V252.97Z" fill="white"/>
<path d="M156.476 252.97H127.6V255.511H156.476V252.97Z" fill="white"/>
<path d="M68.7324 228.453H29.6718V230.994H68.7324V228.453Z" fill="white"/>
<path d="M156.479 228.453H126.537V230.994H156.479V228.453Z" fill="white"/>
<path d="M35.9299 230.991H34.2371V252.967H35.9299V230.991Z" fill="white"/>
<path d="M42.4892 230.991H40.7964V252.967H42.4892V230.991Z" fill="white"/>
<path d="M49.0513 230.991H47.3585V252.967H49.0513V230.991Z" fill="white"/>
<path d="M55.6108 230.991H53.918V252.967H55.6108V230.991Z" fill="white"/>
<path d="M62.1729 230.991H60.4801V252.967H62.1729V230.991Z" fill="white"/>
<path d="M136.196 230.991H134.503V252.967H136.196V230.991Z" fill="white"/>
<path d="M143.729 230.991H142.036V252.967H143.729V230.991Z" fill="white"/>
<path d="M151.265 230.991H149.573V252.967H151.265V230.991Z" fill="white"/>
<path d="M69.8168 228.453H67.1532V306.04H69.8168V228.453Z" fill="white"/>
<path d="M129.204 228.453H126.537V306.04H129.204V228.453Z" fill="white"/>
<path d="M277.05 228.054H163.936V297.004H277.05V228.054Z" fill="#0364FF"/>
<path d="M217.378 235.953H168.175V297.005H217.378V235.953Z" fill="#315185"/>
<path d="M272.709 235.953H222.404V297.005H272.709V235.953Z" fill="#315185"/>
<path d="M191.199 239.78H170.529V249.019H191.199V239.78Z" fill="#72C5D3"/>
<path d="M214.308 239.78H193.638V249.019H214.308V239.78Z" fill="#72C5D3"/>
<path d="M246.337 239.78H225.667V249.019H246.337V239.78Z" fill="#72C5D3"/>
<path d="M269.446 239.78H248.776V249.019H269.446V239.78Z" fill="#72C5D3"/>
<path d="M206.299 161.419H179.248V205.857H206.299V161.419Z" fill="white"/>
<path d="M191.153 163.881H181.893V182.456H191.153V163.881Z" fill="#72C5D3"/>
<path d="M203.678 163.881H194.419V182.456H203.678V163.881Z" fill="#72C5D3"/>
<path d="M191.153 184.925H181.893V203.5H191.153V184.925Z" fill="#72C5D3"/>
<path d="M203.678 184.925H194.419V203.5H203.678V184.925Z" fill="#72C5D3"/>
<path d="M262.703 161.419H235.651V205.857H262.703V161.419Z" fill="white"/>
<path d="M247.556 163.881H238.297V182.456H247.556V163.881Z" fill="#72C5D3"/>
<path d="M260.082 163.881H250.822V182.456H260.082V163.881Z" fill="#72C5D3"/>
<path d="M247.556 184.925H238.297V203.5H247.556V184.925Z" fill="#72C5D3"/>
<path d="M260.082 184.925H250.822V203.5H260.082V184.925Z" fill="#72C5D3"/>
<path d="M206.299 88.4714H179.248V132.912H206.299V88.4714Z" fill="white"/>
<path d="M191.153 90.9324H181.893V109.507H191.153V90.9324Z" fill="#72C5D3"/>
<path d="M203.678 90.9324H194.419V109.507H203.678V90.9324Z" fill="#72C5D3"/>
<path d="M191.153 111.974H181.893V130.549H191.153V111.974Z" fill="#72C5D3"/>
<path d="M203.678 111.974H194.419V130.549H203.678V111.974Z" fill="#72C5D3"/>
<path d="M262.703 88.4714H235.651V132.912H262.703V88.4714Z" fill="white"/>
<path d="M247.556 90.9324H238.297V109.507H247.556V90.9324Z" fill="#72C5D3"/>
<path d="M260.082 90.9324H250.822V109.507H260.082V90.9324Z" fill="#72C5D3"/>
<path d="M247.556 111.974H238.297V130.549H247.556V111.974Z" fill="#72C5D3"/>
<path d="M260.082 111.974H250.822V130.549H260.082V111.974Z" fill="#72C5D3"/>
<path d="M95.9712 88.4714H68.9169V132.912H95.9712V88.4714Z" fill="white"/>
<path d="M80.8247 90.9324H71.5649V109.507H80.8247V90.9324Z" fill="#72C5D3"/>
<path d="M93.3505 90.9324H84.0907V109.507H93.3505V90.9324Z" fill="#72C5D3"/>
<path d="M80.8247 111.974H71.5649V130.549H80.8247V111.974Z" fill="#72C5D3"/>
<path d="M93.3505 111.974H84.0907V130.549H93.3505V111.974Z" fill="#72C5D3"/>
<path d="M143.748 88.4714H116.694V132.912H143.748V88.4714Z" fill="white"/>
<path d="M128.599 90.9324H119.339V109.507H128.599V90.9324Z" fill="#72C5D3"/>
<path d="M141.124 90.9324H131.864V109.507H141.124V90.9324Z" fill="#72C5D3"/>
<path d="M128.599 111.974H119.339V130.549H128.599V111.974Z" fill="#72C5D3"/>
<path d="M141.124 111.974H131.864V130.549H141.124V111.974Z" fill="#72C5D3"/>
<path d="M159.032 143.6H153.923V218.13H159.032V143.6Z" fill="#2B70DD"/>
<path d="M286.399 146.912H281.293V219.7H286.399V146.912Z" fill="#2B70DD"/>
<path d="M159.032 76.0601H153.923V145.518H159.032V76.0601Z" fill="#2B70DD"/>
<path d="M286.399 74.2966H281.293V147.081H286.399V74.2966Z" fill="#2B70DD"/>
<path d="M159.081 220.48H153.972V297.004H159.081V220.48Z" fill="#2B70DD"/>
<path d="M286.454 220.612H281.345V297.007H286.454V220.612Z" fill="#2B70DD"/>
<path d="M291.815 140.251H149.619V146.875H291.815V140.251Z" fill="#2B70DD"/>
<path d="M291.815 216.351H149.619V222.972H291.815V216.351Z" fill="#2B70DD"/>
<path d="M274.78 231.415H166.286V237.292H274.78V231.415Z" fill="#2B70DD"/>
<path d="M268.884 18.6487H222.404H220.164H173.681L142.565 81.0309H220.164H222.404H300L268.884 18.6487Z" fill="#5091F7"/>
<path d="M238.297 52.4374C238.297 60.0842 232.097 66.2809 224.453 66.2809C216.806 66.2809 210.609 60.0842 210.609 52.4374C210.609 44.7936 216.806 38.5938 224.453 38.5938C232.097 38.5938 238.297 44.7905 238.297 52.4374Z" fill="#72C5D3"/>
<path d="M224.453 67.8448C215.955 67.8448 209.042 60.9322 209.042 52.4344C209.042 43.9365 215.955 37.0239 224.453 37.0239C232.951 37.0239 239.863 43.9365 239.863 52.4344C239.863 60.9353 232.951 67.8448 224.453 67.8448ZM224.453 40.1607C217.685 40.1607 212.176 45.6693 212.176 52.4375C212.176 59.2056 217.685 64.7142 224.453 64.7142C231.221 64.7142 236.73 59.2056 236.73 52.4375C236.73 45.6662 231.221 40.1607 224.453 40.1607Z" fill="white"/>
<path d="M156.479 176.734H13.1062V183.601H156.479V176.734Z" fill="#2B70DD"/>
<path d="M72.0781 267.677C72.0781 269.661 70.4713 271.271 68.4866 271.271C66.5019 271.271 64.8921 269.661 64.8921 267.677C64.8921 265.692 66.5019 264.082 68.4866 264.082C70.4713 264.082 72.0781 265.692 72.0781 267.677Z" fill="white"/>
<path d="M131.195 267.677C131.195 269.661 129.585 271.271 127.6 271.271C125.615 271.271 124.009 269.661 124.009 267.677C124.009 265.692 125.615 264.082 127.6 264.082C129.585 264.082 131.195 265.692 131.195 267.677Z" fill="white"/>
<path d="M72.0781 226.914C72.0781 228.899 70.4713 230.505 68.4866 230.505C66.5019 230.505 64.8921 228.899 64.8921 226.914C64.8921 224.929 66.5019 223.319 68.4866 223.319C70.4713 223.319 72.0781 224.926 72.0781 226.914Z" fill="white"/>
<path d="M131.195 226.914C131.195 228.899 129.585 230.505 127.6 230.505C125.615 230.505 124.009 228.899 124.009 226.914C124.009 224.929 125.615 223.319 127.6 223.319C129.585 223.319 131.195 224.926 131.195 226.914Z" fill="white"/>
<path d="M226.02 38.5938H222.886V66.2809H226.02V38.5938Z" fill="white"/>
<path d="M238.297 50.8706H210.609V54.0043H238.297V50.8706Z" fill="white"/>
</svg>
