<svg width="512" height="300" viewBox="0 0 512 300" fill="none" xmlns="http://www.w3.org/2000/svg">
<path d="M490.014 143.758H21.4496V300H490.014V143.758Z" fill="#5697FF"/>
<path d="M423.711 170.219H364.576V257.026H423.711V170.219Z" fill="#315185"/>
<path d="M420.498 173.639H368.274V253.678H420.498V173.639Z" fill="white"/>
<path d="M416.822 177.328H371.956V250.09H416.822V177.328Z" fill="#72C5D3"/>
<path d="M418.396 193.256H370.866V195.738H418.396V193.256Z" fill="white"/>
<path d="M418.396 212.404H370.866V214.886H418.396V212.404Z" fill="white"/>
<path d="M418.396 230.295H370.866V232.777H418.396V230.295Z" fill="white"/>
<path d="M144.345 170.219H85.2151V257.026H144.345V170.219Z" fill="#315185"/>
<path d="M141.133 173.639H88.913V253.678H141.133V173.639Z" fill="white"/>
<path d="M137.46 177.328H92.5945V250.09H137.46V177.328Z" fill="#72C5D3"/>
<path d="M139.035 193.256H91.505V195.738H139.035V193.256Z" fill="white"/>
<path d="M139.035 212.404H91.505V214.886H139.035V212.404Z" fill="white"/>
<path d="M139.035 230.295H91.505V232.777H139.035V230.295Z" fill="white"/>
<path d="M58.7 150.838H35.4988V241.688H58.7V150.838Z" fill="white"/>
<path d="M53.1108 157.597H42.1644V234.93H53.1108V157.597Z" fill="#5697FF"/>
<path d="M61.8279 245.213H32.3661V299.995H61.8279V245.213Z" fill="#2277FF"/>
<path d="M65.5134 241.688H28.6852V247.046H65.5134V241.688Z" fill="#315185"/>
<path d="M199.545 150.838H176.344V241.688H199.545V150.838Z" fill="white"/>
<path d="M193.956 157.597H183.005V234.93H193.956V157.597Z" fill="#5697FF"/>
<path d="M202.674 245.213H173.212V299.995H202.674V245.213Z" fill="#2277FF"/>
<path d="M206.355 241.688H169.526V247.046H206.355V241.688Z" fill="#315185"/>
<path d="M335.229 150.838H312.031V241.688H335.229V150.838Z" fill="white"/>
<path d="M329.639 157.597H318.693V234.93H329.639V157.597Z" fill="#5697FF"/>
<path d="M338.36 245.213H308.899V299.995H338.36V245.213Z" fill="#2277FF"/>
<path d="M342.046 241.688H305.218V247.046H342.046V241.688Z" fill="#315185"/>
<path d="M471.599 150.838H448.398V241.688H471.599V150.838Z" fill="white"/>
<path d="M466.014 157.597H455.064V234.93H466.014V157.597Z" fill="#5697FF"/>
<path d="M474.732 245.213H445.27V299.995H474.732V245.213Z" fill="#2277FF"/>
<path d="M478.417 241.688H441.584V247.046H478.417V241.688Z" fill="#315185"/>
<path d="M287.466 169.202H225.588V299.996H287.466V169.202Z" fill="white"/>
<path d="M283.557 172.688H229.32V296.585H283.557V172.688Z" fill="#315185"/>
<path d="M254.48 180.186H238.637V242.626H254.48V180.186Z" fill="#72C5D3"/>
<path d="M274.236 180.186H258.393V242.626H274.236V180.186Z" fill="#72C5D3"/>
<path d="M254.48 246.885H238.637V288.108H254.48V246.885Z" fill="#72C5D3"/>
<path d="M274.236 246.885H258.393V288.108H274.236V246.885Z" fill="#72C5D3"/>
<path d="M490.014 130.334H21.4496V143.759H490.014V130.334Z" fill="#315185"/>
<path d="M504.363 130.335H493.986V119.236L254.48 8.51514L14.9741 120.359V131.259H504.363V130.335Z" fill="#315185"/>
<path d="M254.48 8.51473L493.986 119.236V130.334H504.362V117.834L254.48 0L4.89294 117.834V131.259H14.9739V120.359L254.48 8.51473Z" fill="#9EC4FF"/>
<path d="M511.463 124.985H0V131.258H511.463V124.985Z" fill="#2277FF"/>
<path d="M292.131 53.9126H216.833V89.4153H292.131V53.9126Z" fill="#9EC4FF"/>
<path d="M278.243 58.666H229.32V84.9448H278.243V58.666Z" fill="white"/>
<path d="M274.232 62.0259H233.043V81.297H274.232V62.0259Z" fill="#72C5D3"/>
<path d="M255.877 60.3418H253.083V83.2687H255.877V60.3418Z" fill="white"/>
<path d="M308.16 47.7617H200.799V53.9124H308.16V47.7617Z" fill="#9EC4FF"/>
<path d="M200.799 47.7622L254.627 20.9177L308.16 47.7622H200.799Z" fill="#2277FF"/>
<path d="M504.362 143.758H9.56995V150.555H504.362V143.758Z" fill="#9EC4FF"/>
<path d="M497.713 138.296H14.9736V143.758H497.713V138.296Z" fill="#2277FF"/>
</svg>
