<svg width="354" height="300" viewBox="0 0 354 300" fill="none" xmlns="http://www.w3.org/2000/svg">
<path d="M309.249 81.2566H43.7108V150.037H309.249V81.2566Z" fill="#3F89FF"/>
<path d="M315.973 155.098H46.9907L10.3215 183.531H132.904H220.172H353.072L315.973 155.098Z" fill="#315185"/>
<path d="M315.973 155.098L309.368 150.037H220.172H132.904H43.7108L0 183.531H10.3217L46.9908 155.098H315.973Z" fill="#416BAD"/>
<path d="M339.359 183.531H15.795V272.07H339.359V183.531Z" fill="#3F89FF"/>
<path d="M181.899 197.579H137.857V272.07H181.899V197.579Z" fill="#287BFF"/>
<path d="M25.9142 82.2877H339.362L316.005 7.36719H50.4034L25.9142 82.2877Z" fill="#315185"/>
<path d="M44.5143 1.04468L19.1938 82.2875H25.9142L50.4035 7.36693H316.005L314.035 1.04468H44.5143Z" fill="#416BAD"/>
<path d="M146.848 95.2881H74.2534V145.433H146.848V95.2881Z" fill="#287BFF"/>
<path d="M143.672 97.6494H77.2328V142.485H143.672V97.6494Z" fill="white"/>
<path d="M141.413 99.6125H79.4858V140.522H141.413V99.6125Z" fill="#72C5D3"/>
<path d="M94.7116 98.886H92.759V141.954H94.7116V98.886Z" fill="white"/>
<path d="M111.425 98.886H109.473V141.954H111.425V98.886Z" fill="white"/>
<path d="M127.322 98.886H125.369V141.954H127.322V98.886Z" fill="white"/>
<path d="M142.847 127.353V125.4L78.053 125.4V127.353L142.847 127.353Z" fill="white"/>
<path d="M115.785 202.728H43.1904V252.877H115.785V202.728Z" fill="#287BFF"/>
<path d="M112.599 205.09H46.1664V249.925H112.599V205.09Z" fill="white"/>
<path d="M110.35 207.053H48.4194V247.962H110.35V207.053Z" fill="#72C5D3"/>
<path d="M63.6452 206.326H61.6926V249.394H63.6452V206.326Z" fill="white"/>
<path d="M80.3626 206.326H78.41V249.394H80.3626V206.326Z" fill="white"/>
<path d="M96.2555 206.326H94.303V249.394H96.2555V206.326Z" fill="white"/>
<path d="M111.782 234.79V232.838H46.9875V234.79H111.782Z" fill="white"/>
<path d="M308.404 202.728H267.959V252.877H308.404V202.728Z" fill="#287BFF"/>
<path d="M305.225 205.09H271.033V249.925H305.225V205.09Z" fill="white"/>
<path d="M302.976 207.053H272.109V247.962H302.976V207.053Z" fill="#72C5D3"/>
<path d="M272.985 206.326H271.033V249.394H272.985V206.326Z" fill="white"/>
<path d="M288.882 206.326H286.929V249.394H288.882V206.326Z" fill="white"/>
<path d="M304.406 234.79V232.837H272.012V234.79H304.406Z" fill="white"/>
<path d="M247.326 202.728H206.878V252.877H247.326V202.728Z" fill="#287BFF"/>
<path d="M244.148 205.09H209.951V249.925H244.148V205.09Z" fill="white"/>
<path d="M241.891 207.053H211.027V247.962H241.891V207.053Z" fill="#72C5D3"/>
<path d="M211.904 206.326H209.951V249.394H211.904V206.326Z" fill="white"/>
<path d="M227.8 206.326H225.848V249.394H227.8V206.326Z" fill="white"/>
<path d="M243.324 234.79V232.837H210.927V234.79H243.324Z" fill="white"/>
<path d="M205.543 95.3435H165.098V145.488H205.543V95.3435Z" fill="#287BFF"/>
<path d="M202.365 97.7048H168.172V142.54H202.365V97.7048Z" fill="white"/>
<path d="M200.115 99.668H169.248V140.578H200.115V99.668Z" fill="#72C5D3"/>
<path d="M170.125 98.9414H168.172V142.01H170.125V98.9414Z" fill="white"/>
<path d="M186.021 98.9414H184.069V142.01H186.021V98.9414Z" fill="white"/>
<path d="M201.541 127.408V125.455H169.148V127.408H201.541Z" fill="white"/>
<path d="M339.359 272.071H15.795V295.421H339.359V272.071Z" fill="#287BFF"/>
<path d="M347.047 186.137H7.71936V191.212H347.047V186.137Z" fill="#619FFF"/>
<path d="M316.305 84.8928H36.6761V89.9681H316.305V84.8928Z" fill="#619FFF"/>
<path d="M353.072 183.531H0V186.136H353.072V183.531Z" fill="#619FFF"/>
<path d="M339.355 82.2876H19.1904V84.8933H339.355V82.2876Z" fill="#619FFF"/>
<path d="M118.824 0L35.9879 82.8391H118.824H201.663L118.824 0Z" fill="white"/>
<path d="M53.3376 77.2603H118.824H183.601L118.824 12.2493L53.3376 77.2603Z" fill="#3F89FF"/>
<path d="M118.824 7.36621L48.9294 77.2604H53.3375L118.824 12.2494L183.601 77.2604H188.721L118.824 7.36621Z" fill="#619FFF"/>
<path d="M256.523 100.534L173.687 183.37H256.523H339.359L256.523 100.534Z" fill="white"/>
<path d="M191.037 177.795H256.523H321.3L256.523 112.78L191.037 177.795Z" fill="#3F89FF"/>
<path d="M256.523 107.897L186.625 177.795H191.037L256.523 112.78L321.3 177.795H326.421L256.523 107.897Z" fill="#619FFF"/>
<path d="M132.652 45.1084C132.652 52.7475 126.459 58.9371 118.823 58.9371C111.184 58.9371 104.995 52.7475 104.995 45.1084C104.995 37.4728 111.184 31.2798 118.823 31.2798C126.459 31.2833 132.652 37.4728 132.652 45.1084Z" fill="white"/>
<path d="M130.871 45.1085C130.871 51.7626 125.478 57.1557 118.823 57.1557C112.173 57.1557 106.776 51.7626 106.776 45.1085C106.776 38.4544 112.173 33.0613 118.823 33.0613C125.478 33.0648 130.871 38.4544 130.871 45.1085Z" fill="#72C5D3"/>
<path d="M119.236 31.6465H117.709V58.5702H119.236V31.6465Z" fill="white"/>
<path d="M105.36 44.3486V45.8716H132.287V44.3486H105.36Z" fill="white"/>
<path d="M270.893 147.438C270.893 155.073 264.703 161.266 257.068 161.266C249.432 161.266 243.239 155.073 243.239 147.438C243.239 139.802 249.429 133.609 257.068 133.609C264.703 133.609 270.893 139.802 270.893 147.438Z" fill="white"/>
<path d="M269.111 147.438C269.111 154.092 263.718 159.485 257.068 159.485C250.414 159.485 245.021 154.092 245.021 147.438C245.021 140.784 250.414 135.391 257.068 135.391C263.718 135.391 269.111 140.784 269.111 147.438Z" fill="#72C5D3"/>
<path d="M257.473 133.972H255.95V160.9H257.473V133.972Z" fill="white"/>
<path d="M243.605 146.674V148.197H270.529V146.674H243.605Z" fill="white"/>
<path d="M179.423 199.567H140.228V272.07H179.423V199.567Z" fill="#315185"/>
<path d="M176.478 240.155H143.669V242.603H176.478V240.155Z" fill="#619FFF"/>
<path d="M176.23 245.73H143.421V267.851H176.23V245.73Z" fill="#619FFF"/>
<path d="M158.133 202.728H143.421V235.821H158.133V202.728Z" fill="#72C5D3"/>
<path d="M176.23 202.728H161.518V235.821H176.23V202.728Z" fill="#72C5D3"/>
<path d="M180.418 275.769H139.034V279.349H180.418V275.769Z" fill="white"/>
<path d="M180.418 282.65H139.034V286.23H180.418V282.65Z" fill="white"/>
<path d="M180.418 289.539H139.034V293.119H180.418V289.539Z" fill="white"/>
<path d="M180.418 296.42H139.034V300H180.418V296.42Z" fill="white"/>
<path d="M140.228 246.649H136.051V299.983H140.228V246.649Z" fill="#315185"/>
<path d="M183.6 246.649H179.423V299.983H183.6V246.649Z" fill="#315185"/>
</svg>
