<svg width="285" height="213" viewBox="0 0 285 213" fill="none" xmlns="http://www.w3.org/2000/svg">
<path d="M269.787 19.0187H149.715H134.804H14.7324L0.0800781 114.832H134.804H149.715H284.439L269.787 19.0187Z" fill="#F15B66"/>
<path d="M0 120.15H284.523V114.832L146.625 0L0.0107422 114.832L0 115.072V120.15Z" fill="#D3394C"/>
<path d="M272.246 119.443H12.3115V206.336H272.246V119.443Z" fill="#97D9E8"/>
<path d="M265.558 108.805L279.479 120.15H284.523L146.719 4.61337L0 120.15H6.88684L22.4259 108.805H265.558Z" fill="#D3394C"/>
<path d="M265.552 108.806H22.4199L6.88086 120.15H279.473L265.552 108.806Z" fill="#75A1BC"/>
<path d="M146.625 11.5353L22.4258 108.805H265.558L146.625 11.5353Z" fill="#97D9E8"/>
<path d="M96.5368 171.606H25.3174V173.401H96.5368V171.606Z" fill="white"/>
<path d="M97.896 191.598H24.8574V193.393H97.896V191.598Z" fill="white"/>
<path d="M31.8518 172.504H30.0596V192.068H31.8518V172.504Z" fill="white"/>
<path d="M38.5491 172.442H36.7568V192.006H38.5491V172.442Z" fill="white"/>
<path d="M45.2539 172.442H43.459V192.006H45.2539V172.442Z" fill="white"/>
<path d="M51.9609 172.442H50.166V192.006H51.9609V172.442Z" fill="white"/>
<path d="M58.6689 172.442H56.874V192.006H58.6689V172.442Z" fill="white"/>
<path d="M65.3584 172.442H63.5635V192.006H65.3584V172.442Z" fill="white"/>
<path d="M72.0647 172.442H70.2725V192.006H72.0647V172.442Z" fill="white"/>
<path d="M78.7725 172.442H76.9775V192.006H78.7725V172.442Z" fill="white"/>
<path d="M85.4756 172.442H83.6807V192.006H85.4756V172.442Z" fill="white"/>
<path d="M92.1712 172.442H90.3789V192.006H92.1712V172.442Z" fill="white"/>
<path d="M258.747 171.606H187.525V173.401H258.747V171.606Z" fill="white"/>
<path d="M260.103 191.598H187.064V193.393H260.103V191.598Z" fill="white"/>
<path d="M200.76 172.442H198.965V192.006H200.76V172.442Z" fill="white"/>
<path d="M247.909 172.442H246.114V192.006H247.909V172.442Z" fill="white"/>
<path d="M207.471 172.442H205.676V192.006H207.471V172.442Z" fill="white"/>
<path d="M214.184 172.442H212.389V192.006H214.184V172.442Z" fill="white"/>
<path d="M220.869 172.442H219.077V192.006H220.869V172.442Z" fill="white"/>
<path d="M227.58 172.442H225.788V192.006H227.58V172.442Z" fill="white"/>
<path d="M234.265 172.442H232.47V192.006H234.265V172.442Z" fill="white"/>
<path d="M240.971 172.442H239.176V192.006H240.971V172.442Z" fill="white"/>
<path d="M254.381 172.442H252.586V192.006H254.381V172.442Z" fill="white"/>
<path d="M170.83 96.9557V82.8891C170.83 67.9386 158.953 55.71 144.438 55.71C129.923 55.71 118.046 67.9386 118.046 82.8891V96.9557H170.83Z" fill="white"/>
<path d="M168.255 94.4057V82.0803C168.255 68.9811 157.536 58.2626 144.437 58.2626C131.338 58.2626 120.619 68.9811 120.619 82.0803V94.4057H168.255Z" fill="#72C5D3"/>
<path d="M132.294 60.6298H129.93V95.7706H132.294V60.6298Z" fill="white"/>
<path d="M169.688 80.0722V77.7076L119.204 77.7076V80.0722L169.688 80.0722Z" fill="white"/>
<path d="M158.935 60.6298H156.567V95.7706H158.935V60.6298Z" fill="white"/>
<path d="M145.618 57.1608H143.254V95.768H145.618V57.1608Z" fill="white"/>
<path d="M25.7851 173.686H7.19629V194.645H25.7851V173.686Z" fill="#DD6140"/>
<path d="M21.2095 123.474H16.9775H16.002H11.77L8.65039 172.039H16.002H16.9775H24.3291L21.2095 123.474Z" fill="#75A1BC"/>
<path d="M12.3077 173.686H7.19434V194.645H12.3077V173.686Z" fill="#EF7D59"/>
<path d="M19.4148 120.15H13.5598H6.95508C7.12436 121.658 7.95465 126.322 11.7675 126.322C12.3963 126.322 12.9901 126.322 13.5598 126.322C17.1066 126.322 19.4148 126.322 19.4148 126.322C19.9844 126.322 20.5782 126.322 21.2043 126.322C25.0494 126.322 25.8555 121.617 26.0141 120.15H19.4148Z" fill="white"/>
<path d="M25.6939 173.855H7.29592C6.54893 173.855 5.94434 173.248 5.94434 172.501C5.94434 171.754 6.54893 171.15 7.29592 171.15H25.6939C26.4409 171.15 27.0455 171.754 27.0455 172.501C27.0455 173.248 26.4409 173.855 25.6939 173.855Z" fill="white"/>
<path d="M278.22 173.686H259.631V194.645H278.22V173.686Z" fill="#DD6140"/>
<path d="M273.645 123.474H269.41H268.435H264.203L261.086 172.039H268.435H269.41H276.765L273.645 123.474Z" fill="#75A1BC"/>
<path d="M264.723 173.686H259.609V194.645H264.723V173.686Z" fill="#EF7D59"/>
<path d="M271.87 120.15H266.012H259.407C259.579 121.658 260.407 126.322 264.22 126.322C264.848 126.322 265.442 126.322 266.012 126.322C269.556 126.322 271.87 126.322 271.87 126.322C272.439 126.322 273.033 126.322 273.659 126.322C277.507 126.322 278.308 121.617 278.469 120.15H271.87Z" fill="white"/>
<path d="M278.131 173.856H259.733C258.986 173.856 258.379 173.248 258.379 172.501C258.379 171.754 258.986 171.15 259.733 171.15H278.131C278.876 171.15 279.483 171.754 279.483 172.501C279.48 173.248 278.876 173.856 278.131 173.856Z" fill="white"/>
<path d="M113.564 173.686H94.9756V194.645H113.564V173.686Z" fill="#DD6140"/>
<path d="M108.989 123.474H104.757H103.781H99.5493L96.4297 172.039H103.781H104.757H112.108L108.989 123.474Z" fill="#75A1BC"/>
<path d="M100.087 173.686H94.9736V194.645H100.087V173.686Z" fill="#EF7D59"/>
<path d="M107.194 120.15H101.339H94.7344C94.9037 121.658 95.7313 126.322 99.5468 126.322C100.176 126.322 100.769 126.322 101.339 126.322C104.886 126.322 107.194 126.322 107.194 126.322C107.764 126.322 108.358 126.322 108.986 126.322C112.831 126.322 113.635 121.617 113.796 120.15H107.194Z" fill="white"/>
<path d="M113.473 173.855H95.0752C94.3282 173.855 93.7236 173.248 93.7236 172.501C93.7236 171.754 94.3282 171.15 95.0752 171.15H113.473C114.22 171.15 114.825 171.754 114.825 172.501C114.825 173.248 114.22 173.855 113.473 173.855Z" fill="white"/>
<path d="M192.925 173.686H174.336V194.645H192.925V173.686Z" fill="#DD6140"/>
<path d="M188.331 123.474H184.096H183.12H178.891L175.771 172.039H183.12H184.096H191.45L188.331 123.474Z" fill="#75A1BC"/>
<path d="M179.429 173.686H174.315V194.645H179.429V173.686Z" fill="#EF7D59"/>
<path d="M186.56 120.15H180.702H174.098C174.267 121.658 175.097 126.322 178.91 126.322C179.539 126.322 180.133 126.322 180.702 126.322C184.246 126.322 186.56 126.322 186.56 126.322C187.13 126.322 187.724 126.322 188.35 126.322C192.197 126.322 192.998 121.617 193.159 120.15H186.56Z" fill="white"/>
<path d="M192.817 173.855H174.419C173.672 173.855 173.064 173.248 173.064 172.501C173.064 171.754 173.672 171.15 174.419 171.15H192.817C193.561 171.15 194.168 171.754 194.168 172.501C194.168 173.248 193.561 173.855 192.817 173.855Z" fill="white"/>
<path d="M89.0283 128.929H33.0039V167.63H89.0283V128.929Z" fill="#F15B66"/>
<path d="M86.5735 130.748H35.2998V165.351H86.5735V130.748Z" fill="white"/>
<path d="M84.8318 132.263H37.0352V163.836H84.8318V132.263Z" fill="#72C5D3"/>
<path d="M48.7936 131.704H47.2861V164.943H48.7936V131.704Z" fill="white"/>
<path d="M61.691 131.704H60.1836V164.943H61.691V131.704Z" fill="white"/>
<path d="M73.9598 131.704H72.4551V164.943H73.9598V131.704Z" fill="white"/>
<path d="M85.9424 153.673V152.166H35.937V153.673H85.9424Z" fill="white"/>
<path d="M254.733 128.929H198.706V167.63H254.733V128.929Z" fill="#F15B66"/>
<path d="M252.269 130.748H200.998V165.351H252.269V130.748Z" fill="white"/>
<path d="M250.533 132.263H202.739V163.836H250.533V132.263Z" fill="#72C5D3"/>
<path d="M214.497 131.704H212.989V164.943H214.497V131.704Z" fill="white"/>
<path d="M227.394 131.704H225.887V164.943H227.394V131.704Z" fill="white"/>
<path d="M239.663 131.704H238.158V164.943H239.663V131.704Z" fill="white"/>
<path d="M251.631 153.673V152.166H201.628V153.673H251.631Z" fill="white"/>
<path d="M163.51 129.804H124.051V194.546H163.51V129.804Z" fill="white"/>
<path d="M160.772 131.704H126.797V194.546H160.772V131.704Z" fill="#F15B66"/>
<path d="M170.316 126.322H117.529V129.805H170.316V126.322Z" fill="#F15B66"/>
<path d="M278.461 194.546H7.20117V213H278.461V194.546Z" fill="#D3394C"/>
<path d="M159.344 133.349H149.644V143.758H159.344V133.349Z" fill="#72C5D3"/>
<path d="M159.344 145.677H149.644V156.086H159.344V145.677Z" fill="#72C5D3"/>
<path d="M159.344 158.144H149.644V168.554H159.344V158.144Z" fill="#72C5D3"/>
<path d="M159.344 170.472H149.644V180.882H159.344V170.472Z" fill="#72C5D3"/>
<path d="M159.344 182.494H149.644V192.901H159.344V182.494Z" fill="#72C5D3"/>
<path d="M147.537 133.349H128.755V192.901H147.537V133.349Z" fill="#F9A870"/>
</svg>
