<svg width="207" height="234" viewBox="0 0 207 234" fill="none" xmlns="http://www.w3.org/2000/svg">
<path d="M189.27 49.2325H11.9521V234H189.27V49.2325Z" fill="#FFB27E"/>
<path d="M53.3672 67.2132H26.5781V109.548H53.3672V67.2132Z" fill="#DB874D"/>
<path d="M90.3135 67.2132H63.5244V109.548H90.3135V67.2132Z" fill="#DB874D"/>
<path d="M169.644 67.2132H121.294V109.548H169.644V67.2132Z" fill="#DB874D"/>
<path d="M51.1628 69.3896H28.792V107.375H51.1628V69.3896Z" fill="white"/>
<path d="M48.9482 71.8782H31.0098V104.886H48.9482V71.8782Z" fill="#72C5D3"/>
<path d="M88.1124 69.3896H65.7393V107.375H88.1124V69.3896Z" fill="white"/>
<path d="M85.8788 71.8782H67.9404V104.886H85.8788V71.8782Z" fill="#72C5D3"/>
<path d="M167.238 69.3896H123.487V107.375H167.238V69.3896Z" fill="white"/>
<path d="M143.641 71.8782H125.702V104.886H143.641V71.8782Z" fill="#72C5D3"/>
<path d="M164.886 71.8782H146.947V104.886H164.886V71.8782Z" fill="#72C5D3"/>
<path d="M75.3313 172.67H26.9814V212.829H75.3313V172.67Z" fill="#DB874D"/>
<path d="M72.953 172.67H29.2021V210.655H72.953V172.67Z" fill="white"/>
<path d="M49.3417 175.161H31.4033V208.169H49.3417V175.161Z" fill="#72C5D3"/>
<path d="M70.5898 175.161H52.6514V208.169H70.5898V175.161Z" fill="#72C5D3"/>
<path d="M12.1955 22.4387L3.84961 55.8035H84.9305H100.157H201.236L193.251 22.4387H12.1955Z" fill="#753941"/>
<path d="M193.249 22.4389L192.134 17.7741H100.156H84.9286H9.09948L0 55.8038H3.84778L12.1937 22.4389H193.249Z" fill="#995661"/>
<path d="M201.226 163.04H85.8887V234H201.226V163.04Z" fill="#F9A870"/>
<path d="M201.234 55.8038H0V58.3158H201.234V55.8038Z" fill="#5B252E"/>
<path d="M206.517 160.53H80.7998V163.042H206.517V160.53Z" fill="#5B252E"/>
<path d="M189.27 58.3156H11.9521V61.3652H189.27V58.3156Z" fill="#DB874D"/>
<path d="M83.999 160.53H206.492L201.206 126.858H88.1778L83.999 160.53Z" fill="#753941"/>
<path d="M85.4343 124.13L80.7812 160.53H84.0046L88.1834 126.858H201.211L200.782 124.13H85.4343Z" fill="#995661"/>
<path d="M78.9926 166.007H23.2617V172.67H78.9926V166.007Z" fill="#DB874D"/>
<path d="M128.808 169.338H94.3652V233.997H128.808V169.338Z" fill="#DB874D"/>
<path d="M126.171 171.668H96.7217V234H126.171V171.668Z" fill="white"/>
<path d="M110.328 173.905H98.8711V199.135H110.328V173.905Z" fill="#72C5D3"/>
<path d="M123.674 173.905H112.215V199.135H123.674V173.905Z" fill="#72C5D3"/>
<path d="M173.736 169.822H146.947V212.157H173.736V169.822Z" fill="#DB874D"/>
<path d="M171.544 171.998H149.173V209.983H171.544V171.998Z" fill="white"/>
<path d="M169.311 174.487H151.373V207.495H169.311V174.487Z" fill="#72C5D3"/>
<path d="M56.4766 0H42.2334V29.7283H56.4766V0Z" fill="#FFB27E"/>
<path d="M56.4766 25.6272H42.2334V29.7286H56.4766V25.6272Z" fill="#DB874D"/>
<path d="M50.086 94.5305H29.8398V96.249H50.086V94.5305Z" fill="white"/>
<path d="M40.8379 106.802L40.8379 70.1603H39.1218L39.1218 106.802H40.8379Z" fill="white"/>
<path d="M87.0343 94.5305H66.7881V96.249H87.0343V94.5305Z" fill="white"/>
<path d="M77.79 106.802V70.1595H76.0716V106.802H77.79Z" fill="white"/>
<path d="M170.471 197.712H150.223V199.431H170.471V197.712Z" fill="white"/>
<path d="M161.241 209.985V173.342H159.523V209.985H161.241Z" fill="white"/>
<path d="M144.794 94.432H124.548V96.1505H144.794V94.432Z" fill="white"/>
<path d="M135.557 106.704V70.0615H133.841V106.704H135.557Z" fill="white"/>
<path d="M166.044 94.432H145.798V96.1505H166.044V94.432Z" fill="white"/>
<path d="M156.805 106.702V70.0597H155.089V106.702H156.805Z" fill="white"/>
<path d="M71.7491 197.712H51.5029V199.431H71.7491V197.712Z" fill="white"/>
<path d="M62.5195 209.984L62.5195 173.342H60.801L60.801 209.984H62.5195Z" fill="white"/>
<path d="M50.9551 197.712H30.709V199.431H50.9551V197.712Z" fill="white"/>
<path d="M41.7246 209.985L41.7246 173.343H40.0085L40.0085 209.985H41.7246Z" fill="white"/>
</svg>
