<svg width="257" height="226" viewBox="0 0 257 226" fill="none" xmlns="http://www.w3.org/2000/svg">
<path d="M157.623 226H10.6885V123.348L64.59 126.535V59.8503H157.623V226Z" fill="#EF7D59"/>
<path d="M59.9082 60.9416H158.848V37.5858L180.097 23.2083H68.0868L59.9082 60.9416Z" fill="#006899"/>
<path d="M65.1479 19.6071L56.7559 60.9416H59.9056L68.0842 23.2083H180.094L185.413 19.6071H65.1479Z" fill="#4E81AF"/>
<path d="M3.75098 147.521H157.547V108.649H12.0129L3.75098 147.521Z" fill="#006899"/>
<path d="M9.21377 105.551L0 147.521H3.74831L12.0103 108.649H157.544V105.551H9.21377Z" fill="#4E81AF"/>
<path d="M247.795 226H157.625V42.3991L200.63 8.2645L247.795 42.3991V226Z" fill="#FD936B"/>
<path d="M97.8739 3.29446H89.3789V26.4467H97.8739V3.29446Z" fill="#EF7D59"/>
<path d="M100.158 0H87.0557V4.92823H100.158V0Z" fill="#006899"/>
<path d="M141.04 70.2244H85.792V95.9303H141.04V70.2244Z" fill="#DD6140"/>
<path d="M157.623 149.822H10.6885V152.525H157.623V149.822Z" fill="#DD6140"/>
<path d="M138.986 72.2063H87.8438V93.9505H138.986V72.2063Z" fill="white"/>
<path d="M137.309 73.7371H89.5869V92.5031H137.309V73.7371Z" fill="#72C5D3"/>
<path d="M114.176 72.5449H112.652V93.6144H114.176V72.5449Z" fill="white"/>
<path d="M147.626 157.922H93.4033V207.626H147.626V157.922Z" fill="#DD6140"/>
<path d="M146.001 159.421H95.0312V206.132H146.001V159.421Z" fill="white"/>
<path d="M144.738 160.846H96.3066V204.705H144.738V160.846Z" fill="#72C5D3"/>
<path d="M95.7129 182.43V183.921H145.393V182.43H95.7129Z" fill="white"/>
<path d="M95.7119 194.147V195.638H145.392V194.147H95.7119Z" fill="white"/>
<path d="M95.7129 170.86V172.352H145.393V170.86H95.7129Z" fill="white"/>
<path d="M114.995 205.689H116.303V160.263H114.995V205.689Z" fill="white"/>
<path d="M125.28 205.689H126.59V160.263H125.28V205.689Z" fill="white"/>
<path d="M134.87 205.689H136.178V160.263H134.87V205.689Z" fill="white"/>
<path d="M104.839 205.689H106.149V160.263H104.839V205.689Z" fill="white"/>
<path d="M65.4035 157.022H24.3242V226H65.4035V157.022Z" fill="#DD6140"/>
<path d="M62.4274 159.372H27.3066V226H62.4274V159.372Z" fill="#006899"/>
<path d="M218.034 226V50.4648C218.034 41.646 210.819 34.4315 202 34.4315C193.181 34.4315 185.967 41.646 185.967 50.4648V226H218.034Z" fill="#DD6140"/>
<path d="M215.075 102.858V50.1065C215.075 43.3654 209.19 37.8509 201.997 37.8509C194.802 37.8509 188.92 43.3654 188.92 50.1065V102.858H215.075Z" fill="white"/>
<path d="M212.777 100.495V51.1197C212.777 45.1882 207.922 40.336 201.993 40.336C196.062 40.336 191.212 45.1882 191.212 51.1197V100.495H212.777Z" fill="#72C5D3"/>
<path d="M202.827 39.2885H201.184V101.523H202.827V39.2885Z" fill="white"/>
<path d="M153.853 45.7965L157.537 50.7223L202.065 16.9163L247.791 51.495L251.019 47.0525L202.065 8.46548L153.853 45.7965Z" fill="#DD6140"/>
<path d="M78.7676 175.967H71.1582V183.154H78.7676V175.967Z" fill="#DD6140"/>
<path d="M214.861 156.443H188.706V207.958H214.861V156.443Z" fill="white"/>
<path d="M213.457 157.704H190.118V206.37H213.457V157.704Z" fill="#72C5D3"/>
<path d="M202.366 157.198H201.211V207.626H202.366V157.198Z" fill="white"/>
<path d="M214.543 194.247H189.59V195.297H214.543V194.247Z" fill="white"/>
<path d="M214.543 90.2683H189.59V91.3183H214.543V90.2683Z" fill="white"/>
<path d="M35.4784 160.745H28.8281V194.147H35.4784V160.745Z" fill="#72C5D3"/>
<path d="M43.9479 160.745H37.1455V194.147H43.9479V160.745Z" fill="#72C5D3"/>
<path d="M52.1887 160.745H45.4648V194.147H52.1887V160.745Z" fill="#72C5D3"/>
<path d="M60.9156 160.745H53.7256V194.147H60.9156V160.745Z" fill="#72C5D3"/>
<path d="M61.5167 182.473H28.2432V183.881H61.5167V182.473Z" fill="#006899"/>
<path d="M157.63 147.521H0V149.822H157.63V147.521Z" fill="#004B72"/>
<path d="M157.543 60.9418H56.7217V63.2428H157.543V60.9418Z" fill="#004B72"/>
<path d="M150.777 46.1009L152.306 48.0192L201.99 11.4781L251.928 49.4763L253.269 47.7273L202.066 8.4657L150.777 46.1009Z" fill="#004B72"/>
<path d="M201.995 3.29477L147.823 42.3994L150.782 46.1011L202.071 8.46587L253.274 47.7275L256.841 43.0715L201.995 3.29477Z" fill="#4E81AF"/>
<path d="M149.564 206.132H91.4678V210.244H149.564V206.132Z" fill="white"/>
</svg>
