<svg width="580" height="307" viewBox="0 0 580 307" fill="none" xmlns="http://www.w3.org/2000/svg">
<g filter="url(#filter0_d_31_3488)">
<rect width="580" height="300" rx="9" fill="white"/>
</g>
<rect x="13" y="12" width="83" height="15" rx="4" fill="#F4F4F4"/>
<rect x="549" y="13" width="15" height="15" rx="7.5" fill="#F4F4F4"/>
<rect x="527" y="15" width="12" height="12" rx="4" fill="#F4F4F4"/>
<rect x="508" y="15" width="12" height="12" rx="4" fill="#F4F4F4"/>
<rect x="13" y="41" width="367" height="245" rx="7" fill="#F4F4F4"/>
<rect x="391" y="41" width="173" height="245" rx="7" fill="#F4F4F4"/>
<rect x="398" y="256" width="159" height="22" rx="5" fill="#00F07D"/>
<rect x="398" y="52" width="159" height="175" rx="5" fill="white"/>
<rect x="403" y="56" width="150" height="120" rx="6" fill="#F2F2F2"/>
<rect x="403" y="182" width="84" height="5" rx="2.5" fill="#E8E8E8"/>
<rect x="403" y="190" width="128" height="5" rx="2.5" fill="#F3F3F3"/>
<rect x="403" y="207" width="84" height="14" rx="2" fill="#3A86FF" fill-opacity="0.1"/>
<rect x="539" y="207" width="14" height="14" rx="2" fill="#F2F2F2"/>
<rect x="30" y="78" width="185" height="12" rx="4" fill="#EAEAEA"/>
<rect x="30" y="105" width="60" height="12" rx="4" fill="#EAEAEA"/>
<rect x="95" y="105" width="60" height="12" rx="4" fill="#EAEAEA"/>
<rect x="160" y="105" width="60" height="12" rx="4" fill="#EAEAEA"/>
<rect x="30" y="132" width="241" height="12" rx="4" fill="#EAEAEA"/>
<rect x="30" y="159" width="65" height="45" rx="4" fill="#EAEAEA"/>
<rect x="30" y="219" width="241" height="30" rx="4" fill="#EAEAEA"/>
<rect x="100" y="159" width="65" height="45" rx="4" fill="#EAEAEA"/>
<rect x="170" y="159" width="65" height="45" rx="4" fill="#EAEAEA"/>
<path d="M448 95.5714V136.714C448 140.554 448.777 141.286 452.571 141.286H504.381C508.146 141.286 508.952 140.585 508.952 136.714V95.5714C508.952 91.8229 508.235 91 504.381 91H452.571C448.792 91 448 91.6552 448 95.5714ZM501.775 130.619H455.208C460.297 123.198 469.347 110.825 471.648 110.825C473.874 110.825 481.431 120.822 484.846 124.341C484.846 124.341 489.236 118.473 491.537 118.473C493.88 118.473 501.699 130.558 501.775 130.619ZM488.093 104.714C488.093 101.606 490.606 99.093 493.714 99.093C496.823 99.093 499.336 101.606 499.336 104.714C499.336 107.823 496.823 110.336 493.714 110.336C490.606 110.336 488.093 107.823 488.093 104.714Z" fill="#E4E4E4"/>
<path d="M51 173.818V190.182C51 191.709 51.3091 192 52.8182 192H73.4242C74.9218 192 75.2424 191.721 75.2424 190.182V173.818C75.2424 172.327 74.957 172 73.4242 172H52.8182C51.3152 172 51 172.261 51 173.818ZM72.3879 187.758H53.8667C55.8909 184.806 59.4903 179.885 60.4055 179.885C61.2909 179.885 64.2964 183.861 65.6545 185.261C65.6545 185.261 67.4006 182.927 68.3158 182.927C69.2479 182.927 72.3576 187.733 72.3879 187.758ZM66.9461 177.455C66.9461 176.218 67.9455 175.219 69.1818 175.219C70.4182 175.219 71.4176 176.218 71.4176 177.455C71.4176 178.691 70.4182 179.69 69.1818 179.69C67.9455 179.69 66.9461 178.691 66.9461 177.455Z" fill="#DBDBDB"/>
<path d="M121 173.818V190.182C121 191.709 121.309 192 122.818 192H143.424C144.922 192 145.242 191.721 145.242 190.182V173.818C145.242 172.327 144.957 172 143.424 172H122.818C121.315 172 121 172.261 121 173.818ZM142.388 187.758H123.867C125.891 184.806 129.49 179.885 130.405 179.885C131.291 179.885 134.296 183.861 135.655 185.261C135.655 185.261 137.401 182.927 138.316 182.927C139.248 182.927 142.358 187.733 142.388 187.758ZM136.946 177.455C136.946 176.218 137.945 175.219 139.182 175.219C140.418 175.219 141.418 176.218 141.418 177.455C141.418 178.691 140.418 179.69 139.182 179.69C137.945 179.69 136.946 178.691 136.946 177.455Z" fill="#DBDBDB"/>
<path d="M191 173.818V190.182C191 191.709 191.309 192 192.818 192H213.424C214.922 192 215.242 191.721 215.242 190.182V173.818C215.242 172.327 214.957 172 213.424 172H192.818C191.315 172 191 172.261 191 173.818ZM212.388 187.758H193.867C195.891 184.806 199.49 179.885 200.405 179.885C201.291 179.885 204.296 183.861 205.655 185.261C205.655 185.261 207.401 182.927 208.316 182.927C209.248 182.927 212.358 187.733 212.388 187.758ZM206.946 177.455C206.946 176.218 207.945 175.219 209.182 175.219C210.418 175.219 211.418 176.218 211.418 177.455C211.418 178.691 210.418 179.69 209.182 179.69C207.945 179.69 206.946 178.691 206.946 177.455Z" fill="#DBDBDB"/>
<defs>
<filter id="filter0_d_31_3488" x="0" y="0" width="580" height="307" filterUnits="userSpaceOnUse" color-interpolation-filters="sRGB">
<feFlood flood-opacity="0" result="BackgroundImageFix"/>
<feColorMatrix in="SourceAlpha" type="matrix" values="0 0 0 0 0 0 0 0 0 0 0 0 0 0 0 0 0 0 127 0" result="hardAlpha"/>
<feOffset dy="7"/>
<feComposite in2="hardAlpha" operator="out"/>
<feColorMatrix type="matrix" values="0 0 0 0 0 0 0 0 0 0 0 0 0 0 0 0 0 0 0.05 0"/>
<feBlend mode="normal" in2="BackgroundImageFix" result="effect1_dropShadow_31_3488"/>
<feBlend mode="normal" in="SourceGraphic" in2="effect1_dropShadow_31_3488" result="shape"/>
</filter>
</defs>
</svg>
